<svg xmlns="http://www.w3.org/2000/svg" viewBox="0 0 1200 630" role="img" aria-labelledby="social-title social-desc">
  <title id="social-title">HK Audiology Group social preview</title>
  <desc id="social-desc">A social sharing card for NeuraHear and HK Audiology Group.</desc>
  <rect width="1200" height="630" fill="#f6f7f3"/>
  <path d="M0 0h1200v630H0z" fill="#f6f7f3"/>
  <path d="M0 0h1200v630H0z" fill="url(#grid)" opacity=".8"/>
  <rect x="72" y="72" width="1056" height="486" rx="28" fill="#ffffff" stroke="#dedbd2" stroke-width="2"/>
  <rect x="72" y="72" width="1056" height="8" fill="url(#accent)"/>
  <g transform="translate(116 132)">
    <rect width="132" height="132" rx="30" fill="#171717"/>
    <path d="M48 98c-23-22-23-64 10-82 33-19 69 21 45 55-8 12-23 16-36 9" fill="none" stroke="#14b8a6" stroke-width="10" stroke-linecap="round" stroke-linejoin="round"/>
    <path d="M62 39c12 2 20 15 14 27-4 8-12 12-21 9" fill="none" stroke="#ffffff" stroke-width="6" stroke-linecap="round" stroke-linejoin="round" opacity=".92"/>
    <path d="M43 37l40 4M83 41L71 83M43 37l28 46" fill="none" stroke="#a7f3d0" stroke-width="3.5" stroke-linecap="round" opacity=".55"/>
    <circle cx="43" cy="37" r="6.8" fill="#d97706"/>
    <circle cx="83" cy="41" r="6.8" fill="#38bdf8"/>
    <circle cx="71" cy="83" r="6.8" fill="#f8fafc"/>
    <path d="M28 94c21-12 42-12 63 0" fill="none" stroke="#14b8a6" stroke-width="5" stroke-linecap="round" opacity=".75"/>
  </g>
  <text x="292" y="173" fill="#171717" font-family="Inter, ui-sans-serif, system-ui, -apple-system, BlinkMacSystemFont, Segoe UI, sans-serif" font-size="38" font-weight="800" letter-spacing="0">HK Audiology Group</text>
  <text x="294" y="216" fill="#0f766e" font-family="Inter, ui-sans-serif, system-ui, -apple-system, BlinkMacSystemFont, Segoe UI, sans-serif" font-size="18" font-weight="800" letter-spacing=".16em">NEURAHEAR</text>
  <text x="116" y="338" fill="#171717" font-family="Inter, ui-sans-serif, system-ui, -apple-system, BlinkMacSystemFont, Segoe UI, sans-serif" font-size="58" font-weight="820" letter-spacing="0">AI-enabled hearing care</text>
  <text x="116" y="410" fill="#171717" font-family="Inter, ui-sans-serif, system-ui, -apple-system, BlinkMacSystemFont, Segoe UI, sans-serif" font-size="58" font-weight="820" letter-spacing="0">and digital assessment tools</text>
  <text x="118" y="474" fill="#5f666d" font-family="Inter, ui-sans-serif, system-ui, -apple-system, BlinkMacSystemFont, Segoe UI, sans-serif" font-size="26" font-weight="600" letter-spacing="0">The University of Hong Kong</text>
  <g transform="translate(780 132)">
    <rect x="0" y="0" width="292" height="248" rx="18" fill="#171717"/>
    <rect x="24" y="38" width="244" height="132" rx="12" fill="#ffffff" opacity=".06"/>
    <g transform="translate(42 62)">
      <rect x="0" y="62" width="10" height="46" rx="5" fill="#14b8a6"/>
      <rect x="20" y="34" width="10" height="74" rx="5" fill="#38bdf8"/>
      <rect x="40" y="18" width="10" height="90" rx="5" fill="#a7f3d0"/>
      <rect x="60" y="48" width="10" height="60" rx="5" fill="#d97706"/>
      <rect x="80" y="8" width="10" height="100" rx="5" fill="#14b8a6"/>
      <rect x="100" y="28" width="10" height="80" rx="5" fill="#38bdf8"/>
      <rect x="120" y="72" width="10" height="36" rx="5" fill="#a7f3d0"/>
      <rect x="140" y="42" width="10" height="66" rx="5" fill="#d97706"/>
      <rect x="160" y="20" width="10" height="88" rx="5" fill="#14b8a6"/>
      <rect x="180" y="54" width="10" height="54" rx="5" fill="#38bdf8"/>
    </g>
    <text x="24" y="214" fill="#f8fafc" font-family="Inter, ui-sans-serif, system-ui, sans-serif" font-size="18" font-weight="760">Measure · Model · Care</text>
  </g>
  <defs>
    <linearGradient id="accent" x1="72" x2="1128" y1="76" y2="76" gradientUnits="userSpaceOnUse">
      <stop stop-color="#0f766e"/>
      <stop offset=".52" stop-color="#38bdf8"/>
      <stop offset="1" stop-color="#d97706"/>
    </linearGradient>
    <pattern id="grid" width="48" height="48" patternUnits="userSpaceOnUse">
      <path d="M48 0H0v48" fill="none" stroke="#171717" stroke-opacity=".035" stroke-width="2"/>
    </pattern>
  </defs>
</svg>
